<svg width="37" height="40" viewBox="0 0 37 40" fill="none" xmlns="http://www.w3.org/2000/svg">
    <path d="M26.4993 5.50104C26.1827 5.18947 25.8558 4.86768 25.534 4.5459C25.2071 4.22411 24.8904 3.89721 24.5737 3.57542C22.3365 1.29226 21.0034 0 19.6141 0H9.15343C6.27266 0 3.9231 2.34956 3.9231 5.23033V28.7668C3.9231 31.6476 6.27266 33.9972 9.15343 33.9972H24.8444C27.7252 33.9972 30.0748 31.6476 30.0748 28.7668V19.6137V10.4607C30.0748 9.07136 28.7825 7.73824 26.4993 5.50104ZM27.4596 28.7668C27.4596 30.2123 26.2899 31.382 24.8444 31.382H9.15343C7.70794 31.382 6.53826 30.2123 6.53826 28.7668V5.23033C6.53826 3.78484 7.70794 2.61517 9.15343 2.61517L18.6845 2.61006C19.6294 2.85012 19.6141 4.00958 19.6141 5.16904V9.15308C19.6141 9.87327 20.2015 10.4607 20.9217 10.4607H24.8444C26.1469 10.4607 27.4596 10.4658 27.4596 11.7682V28.7668Z" fill="#2A2C3F"/>
    <rect x="18" y="21" width="18" height="18" rx="9" fill="#2A2C3F"/>
    <rect x="18" y="21" width="18" height="18" rx="9" stroke="white" stroke-width="2"/>
    <path d="M27 22C22.5844 22 19 25.5922 19 30.0174C19 31.8915 19.658 33.6269 20.7316 34.9978C21.5974 33.7657 22.5325 32.603 23.71 31.6486C23.7446 31.6139 23.8312 31.5618 23.9351 31.4924C24.4199 31.128 24.7662 30.59 24.8528 29.9826V29.9653C25.1472 28.0043 25.9437 27.3275 28.1775 27.3275C28.368 27.3275 28.5931 27.3275 28.8009 27.3449C29.9437 27.397 30.6017 27.7267 30.671 27.9002C30.7229 27.987 30.7056 28.0911 30.6883 28.1952L30.6017 28.1779C29.8918 28.0911 28.8182 28.2993 28.6623 29.0803C28.5758 29.5141 28.6796 30 28.7143 30.4339C28.7662 30.885 28.8009 31.3536 28.8009 31.8048C28.8009 31.8395 28.7662 32.013 28.8009 32.0304C27.5887 30.8677 24.7836 32.3254 23.9004 32.9675C23.987 32.9328 24.0736 32.898 24.1775 32.8633C25.026 32.5683 27.5714 31.8048 28.5584 32.6551C29.3896 33.679 28.645 35.5705 28.0217 36.5076C27.658 37.0629 27.2078 37.5662 26.7056 38C26.8095 38 26.8961 38 27 38C31.4156 38 35 34.4078 35 29.9826C35 25.5575 31.4329 22 27 22ZM27.9177 26.3384C27.0519 26.3384 26.342 25.6269 26.342 24.7592C26.342 23.8915 27.0519 23.18 27.9177 23.18C28.7835 23.18 29.4935 23.8915 29.4935 24.7592C29.4935 25.6269 28.8009 26.3384 27.9177 26.3384Z" fill="#FE4A3C"/>
</svg>
