<svg width="37" height="38" viewBox="0 0 37 38" fill="none" xmlns="http://www.w3.org/2000/svg">
    <path d="M26.4993 5.50104C26.1827 5.18947 25.8558 4.86768 25.534 4.5459C25.2071 4.22411 24.8904 3.89721 24.5737 3.57542C22.3365 1.29226 21.0034 0 19.6141 0H9.15343C6.27266 0 3.9231 2.34956 3.9231 5.23033V28.7668C3.9231 31.6476 6.27266 33.9972 9.15343 33.9972H24.8444C27.7252 33.9972 30.0748 31.6476 30.0748 28.7668V19.6137V10.4607C30.0748 9.07136 28.7825 7.73824 26.4993 5.50104ZM27.4596 28.7668C27.4596 30.2123 26.2899 31.382 24.8444 31.382H9.15343C7.70794 31.382 6.53826 30.2123 6.53826 28.7668V5.23033C6.53826 3.78484 7.70794 2.61517 9.15343 2.61517L18.6845 2.61006C19.6294 2.85012 19.6141 4.00958 19.6141 5.16904V9.15308C19.6141 9.87327 20.2015 10.4607 20.9217 10.4607H24.8444C26.1469 10.4607 27.4596 10.4658 27.4596 11.7682V28.7668Z" fill="#2A2C3F"/>
    <rect x="11" y="13" width="13" height="13" rx="6.5" fill="#2A2C3F"/>
    <rect x="11" y="13" width="13" height="13" rx="6.5" stroke="white" stroke-width="2"/>
    <path d="M17.5 14C14.4643 14 12 16.4696 12 19.5119C12 20.8004 12.4524 21.9935 13.1905 22.936C13.7857 22.0889 14.4286 21.2896 15.2381 20.6334C15.2619 20.6095 15.3214 20.5738 15.3929 20.526C15.7262 20.2755 15.9643 19.9056 16.0238 19.4881V19.4761C16.2262 18.128 16.7738 17.6627 18.3095 17.6627C18.4405 17.6627 18.5952 17.6627 18.7381 17.6746C19.5238 17.7104 19.9762 17.9371 20.0238 18.0564C20.0595 18.1161 20.0476 18.1876 20.0357 18.2592L19.9762 18.2473C19.4881 18.1876 18.75 18.3308 18.6428 18.8677C18.5833 19.1659 18.6548 19.5 18.6786 19.7983C18.7143 20.1085 18.7381 20.4306 18.7381 20.7408C18.7381 20.7646 18.7143 20.8839 18.7381 20.8959C17.9048 20.0965 15.9762 21.0987 15.369 21.5401C15.4286 21.5163 15.4881 21.4924 15.5595 21.4686C16.1429 21.2657 17.8929 20.7408 18.5714 21.3254C19.1429 22.0293 18.631 23.3297 18.2024 23.974C17.9524 24.3558 17.6429 24.7017 17.2976 25C17.369 25 17.4286 25 17.5 25C20.5357 25 23 22.5304 23 19.4881C23 16.4458 20.5476 14 17.5 14ZM18.131 16.9826C17.5357 16.9826 17.0476 16.4935 17.0476 15.897C17.0476 15.3004 17.5357 14.8113 18.131 14.8113C18.7262 14.8113 19.2143 15.3004 19.2143 15.897C19.2143 16.4935 18.7381 16.9826 18.131 16.9826Z" fill="#FE4A3C"/>
    <g clip-path="url(#clip0_211_116)">
        <path d="M27.7244 22.906L27.7238 22.9067L23.4503 27.7153L23.4502 27.7154C22.547 28.7322 23.2718 30.334 24.6275 30.334H25.3332V33.334C25.3332 33.8791 25.5951 34.3632 25.9999 34.6673C25.5951 34.9714 25.3332 35.4555 25.3332 36.0007C25.3332 36.9209 26.0796 37.6673 26.9999 37.6673H30.9999C31.9202 37.6673 32.6666 36.9209 32.6666 36.0007C32.6666 35.4555 32.4047 34.9714 31.9999 34.6673C32.4047 34.3632 32.6666 33.8791 32.6666 33.334V30.334H33.3723C34.7279 30.334 35.4528 28.7322 34.5496 27.7154L34.5494 27.7153L30.2762 22.9069C30.2761 22.9068 30.2761 22.9067 30.276 22.9067C29.936 22.5239 29.464 22.334 28.9999 22.334C28.535 22.334 28.064 22.5245 27.7244 22.906Z" fill="#FE4A3C" stroke="white" stroke-width="2"/>
    </g>
    <defs>
        <clipPath id="clip0_211_116">
            <rect width="16" height="16" fill="white" transform="translate(21 22)"/>
        </clipPath>
    </defs>
</svg>
