<?xml version="1.0" encoding="UTF-8"?>
<svg id="Layer_1" data-name="Layer 1" xmlns="http://www.w3.org/2000/svg" viewBox="0 0 256.6 256.6">
  <defs>
    <style>
      .cls-1 {
        fill: #fe4a04;
      }

      .cls-2 {
        fill: #ff3200;
      }

      .cls-3 {
        fill: #1b1b50;
      }

      .cls-4 {
        fill: #fff;
        fill-rule: evenodd;
      }
    </style>
  </defs>
  <g>
    <circle class="cls-1" cx="128.3" cy="128.3" r="128.3"/>
    <circle class="cls-3" cx="128.3" cy="128.3" r="122.47"/>
    <g id="_3AKAlw.tif" data-name="3AKAlw.tif">
      <g>
        <path class="cls-2" d="m34.33,128.28s.08.04.11.06c-.04.02-.08.04-.11.06,0-.04,0-.08,0-.12Z"/>
        <path class="cls-1" d="m129.02,209.61c-16.55-16.55-33.09-33.08-49.73-49.72.49.08.91.1,1.28.22,6.92,2.3,13.84,4.61,20.76,6.92,8.67,2.89,17.35,5.79,26.02,8.68.31.1.6.23.9.35.63.25,1.23.05,1.83-.14,15.63-5.21,31.26-10.42,46.89-15.63.5-.17,1.01-.29,1.57-.45-.11.55-48.16,48.74-49.52,49.77Z"/>
        <path class="cls-2" d="m34.56,126.54v-2.2c.07,0,.14,0,.21,0,0,.77,0,1.54,0,2.32-.07-.04-.14-.08-.21-.12Z"/>
      </g>
    </g>
  </g>
  <path class="cls-4" d="m145.78,121.67l-9.12,3.07c-1.93.54-3.31,1.93-3.88,3.86l-2.77,9.12c-.27,1.11-2.2,1.39-2.47,0l-3.04-9.12c-.57-1.66-2.23-3.04-3.88-3.86l-9.12-2.77c-1.11-.3-1.39-2.23,0-2.5l9.12-3.04c1.93-.54,3.31-1.93,3.88-3.88l2.77-9.12c.27-1.09,2.2-1.39,2.47,0l3.04,9.12c.57,1.96,1.96,3.34,3.88,3.88l9.12,2.77c1.11.27,1.38,2.2,0,2.47Z"/>
  <path class="cls-1" d="m223.44,115.28c-.18-2.05-1.11-3.89-2.48-5.46-2.1-2.4-4.78-3.79-7.83-4.65-3.1-.88-6.25-1.19-9.44-1.25-.89-.02-.85-.02-1.11-.86-.82-2.64-1.56-5.32-2.53-7.9-2.65-7.05-6.38-13.51-11.01-19.45-4.51-5.78-9.75-10.81-15.71-15.09-6.82-4.89-14.22-8.6-22.28-10.98-.69-.21-1.39-.41-2.09-.6-2.34-.62-4.63-1.09-6.86-1.47-.22-.04-.44-.08-.66-.11-.12-.02-.25-.04-.37-.05-1.21-.18-2.43-.31-3.65-.44-.33-.04-.65-.08-.98-.13-2.78-.38-5.59-.35-8.4-.29-1.99.04-4.01.05-6,.21-2.34.19-4.36.45-6,.72-.48.09-.96.18-1.44.28-1.99.41-4,.78-5.96,1.35-4.9,1.41-9.64,3.23-14.18,5.56-8.44,4.33-15.82,10.03-22.16,17.09-6.24,6.95-11.05,14.78-14.38,23.5-.96,2.52-1.68,5.14-2.51,7.72-.09.29-.18.57-.3.94-.21,0-.48,0-.74,0-2.64-.04-5.25.19-7.83.79-2.27.52-4.44,1.27-6.43,2.5-2.42,1.5-4.17,3.58-5.17,6.26-.18.49-.25,1.03-.4,1.54-.02.07-.15.11-.22.17v11.6c.08-.08.16-.15.24-.23v-2.2c.07,0,.14,0,.21,0v2.32c.04,1.48.03,2.96.15,4.44.12,1.46.31,2.92.59,4.35.41,2.13.8,4.28,1.42,6.35.9,2.98,2.1,5.85,3.84,8.46,1.66,2.49,3.55,4.79,6.11,6.42,3.26,2.07,6.96,2.71,10.71,3.01,3.41.27,6.83.1,10.24-.32,1.96-.24,3.93-.46,5.9-.71.35-.04.68-.17,1.01-.26-.01-.14,0-.21-.03-.25-.09-.17-.18-.34-.29-.5-3.73-5.83-6.57-12.06-8.27-18.77-.69-2.71-1.18-5.48-1.64-8.24-.25-1.52-.3-3.08-.37-4.62-.16-3.33-.15-6.66.23-9.98.17-1.45.36-2.89.58-4.33.45-2.97,1.12-5.91,2.11-8.74.88-2.52,1.78-5.04,2.89-7.47,4.82-10.51,11.97-19.13,21.36-25.88,5.77-4.15,12.08-7.23,18.87-9.3,2.05-.63,4.17-1.08,6.27-1.52,1.79-.38,3.6-.73,5.43-.91,2.2-.22,4.41-.29,6.62-.33,1.53-.03,3.07.08,4.6.19,2.01.15,4.03.28,6.02.6,2.14.34,4.26.88,6.38,1.37,2.96.68,5.8,1.7,8.6,2.87,5.86,2.45,11.25,5.69,16.13,9.75,9.97,8.29,16.98,18.58,20.78,31,.65,2.12,1.21,4.27,1.68,6.44.66,3.12.99,6.3,1.18,9.49.21,3.42.1,6.84-.35,10.25-.2,1.5-.33,3.02-.6,4.51-.64,3.48-1.56,6.89-2.73,10.24-1.66,4.73-3.93,9.16-6.61,13.39-.44.7-.32.9.5,1,1.55.18,3.09.41,4.64.6,1.42.17,2.83.4,4.25.43,2.44.04,4.89.02,7.33-.12,1.73-.1,3.48-.34,5.18-.69,2.51-.52,4.89-1.41,6.9-3.09,4.08-3.4,6.68-7.79,8.27-12.78.73-2.31,1.25-4.69,1.76-7.06.31-1.46.42-2.97.59-4.45.17-1.47.33-2.95.46-4.42.11-1.31.23-2.63.22-3.95-.02-2.61,0-5.24-.24-7.84Z"/>
</svg>